<?xml version="1.0" standalone="no"?>
<!DOCTYPE svg PUBLIC "-//W3C//DTD SVG 20010904//EN"
 "http://www.w3.org/TR/2001/REC-SVG-20010904/DTD/svg10.dtd">
<svg version="1.0" xmlns="http://www.w3.org/2000/svg"
 width="500.000000pt" height="500.000000pt" viewBox="0 0 500.000000 500.000000"
 preserveAspectRatio="xMidYMid meet">
<metadata>
Created by potrace 1.14, written by Peter Selinger 2001-2017
</metadata>
<g transform="translate(0.000000,500.000000) scale(0.100000,-0.100000)"
fill="#000000" stroke="none">
<path d="M1255 3305 l-25 -24 0 -781 0 -781 25 -24 24 -25 1210 0 c708 0 1220
4 1234 9 13 5 29 22 36 38 8 21 11 227 9 801 l-3 774 -24 19 c-23 18 -57 19
-1243 19 l-1219 0 -24 -25z m344 -137 c37 -79 76 -160 86 -182 10 -21 32 -47
49 -57 30 -18 61 -19 773 -17 l742 3 28 27 c16 16 63 101 108 198 l79 170 125
0 c102 0 128 -3 143 -17 17 -15 18 -53 18 -791 0 -708 -1 -777 -17 -794 -15
-17 -67 -18 -1231 -18 -1117 0 -1217 1 -1234 17 -17 15 -18 53 -18 794 0 694
2 779 16 793 12 13 40 16 140 16 l125 0 68 -142z m1841 138 c0 -2 -37 -82 -83
-178 -67 -138 -89 -176 -111 -186 -21 -9 -196 -12 -749 -12 -685 0 -724 1
-752 19 -23 14 -46 53 -103 174 -39 86 -75 163 -78 171 -6 14 84 16 935 16
518 0 941 -2 941 -4z"/>
<path d="M1307 3252 c-37 -40 -9 -102 46 -102 34 0 57 24 57 60 0 16 -7 36
-16 44 -21 22 -67 20 -87 -2z"/>
<path d="M3605 3256 c-11 -8 -18 -26 -18 -46 0 -37 23 -60 60 -60 28 0 63 33
63 60 0 47 -65 76 -105 46z"/>
<path d="M1412 2401 c3 -439 4 -450 24 -478 11 -15 32 -34 45 -40 19 -10 249
-13 1019 -13 968 0 996 1 1027 20 62 37 59 6 55 568 l-2 392 -1085 0 -1086 0
3 -449z m2148 59 l0 -380 -1065 0 -1065 0 0 373 c0 206 3 377 7 380 3 4 483 7
1065 7 l1058 0 0 -380z m-1900 -485 l0 -85 -64 0 c-117 0 -156 30 -156 120 l0
50 110 0 110 0 0 -85z"/>
<path d="M1495 2750 c9 -14 2005 -14 2005 0 0 7 -342 10 -1006 10 -667 0
-1003 -3 -999 -10z"/>
<path d="M1993 2663 c280 -2 734 -2 1010 0 276 1 48 2 -508 2 -555 0 -781 -1
-502 -2z"/>
<path d="M1835 2561 c-44 -19 -91 -69 -107 -110 -5 -14 -9 -50 -9 -79 0 -67
31 -126 89 -167 l44 -30 648 0 648 0 43 30 c130 92 115 291 -26 356 -38 17
-78 19 -665 19 -585 0 -628 -2 -665 -19z m790 -43 c-15 -52 -17 -213 -2 -260
l15 -48 -223 0 -222 0 19 40 c37 74 34 177 -8 278 -5 9 42 12 211 12 l217 0
-7 -22z m175 -143 l0 -166 -72 3 -72 3 -14 45 c-15 52 -12 209 6 253 11 26 15
27 82 27 l70 0 0 -165z m280 151 c0 -3 -4 -8 -10 -11 -5 -3 -10 -1 -10 4 0 6
5 11 10 11 6 0 10 -2 10 -4z m-865 -151 c0 -45 -5 -89 -12 -100 -10 -16 -12 1
-12 100 0 99 2 116 12 100 7 -11 12 -55 12 -100z m-213 65 c21 -26 26 -40 22
-72 -2 -22 -9 -46 -15 -54 -6 -7 -8 -18 -4 -23 3 -7 0 -8 -10 -5 -8 4 -22 1
-30 -6 -17 -14 -72 -10 -101 8 -36 22 -53 68 -42 111 17 60 50 83 113 76 30
-3 47 -12 67 -35z m1134 15 c9 -9 23 -33 30 -53 11 -33 10 -41 -8 -72 -32 -56
-68 -69 -130 -49 -39 12 -68 55 -68 99 0 28 36 79 64 91 30 13 92 4 112 -16z"/>
<path d="M1307 1832 c-23 -25 -21 -58 3 -82 39 -39 100 -14 100 43 0 52 -68
78 -103 39z"/>
<path d="M3603 1838 c-45 -58 7 -130 71 -100 31 14 41 57 21 88 -17 27 -75 34
-92 12z"/>
<path d="M1726 3254 c-32 -31 -8 -84 38 -84 29 0 46 18 46 50 0 14 -5 31 -12
38 -17 17 -54 15 -72 -4z m62 -32 c4 -28 -24 -40 -45 -19 -14 13 -14 19 -3 32
18 22 44 15 48 -13z"/>
<path d="M3194 3245 c-15 -23 -15 -27 0 -50 10 -15 26 -25 41 -25 15 0 31 10
41 25 15 23 15 27 0 50 -10 15 -26 25 -41 25 -15 0 -31 -10 -41 -25z m61 -25
c0 -16 -6 -26 -18 -28 -19 -4 -32 20 -23 44 9 25 41 13 41 -16z"/>
<path d="M1856 3177 c-22 -16 -18 -65 5 -80 47 -29 101 32 64 73 -21 23 -44
25 -69 7z m53 -21 c17 -20 2 -48 -23 -44 -24 3 -34 37 -14 49 18 12 24 11 37
-5z"/>
<path d="M3076 3174 c-19 -18 -21 -55 -4 -72 31 -31 88 -4 88 42 0 20 -28 46
-50 46 -10 0 -26 -7 -34 -16z m52 -13 c23 -14 10 -46 -18 -46 -16 0 -26 6 -28
19 -3 16 12 36 28 36 3 0 11 -4 18 -9z"/>
<path d="M2460 3062 c-43 -34 -17 -112 37 -112 30 0 63 34 63 65 0 30 -32 65
-59 65 -10 0 -29 -8 -41 -18z"/>
</g>
</svg>
